<?xml version="1.0" encoding="utf-8"?>
<!-- Generator: Adobe Illustrator 24.0.2, SVG Export Plug-In . SVG Version: 6.00 Build 0)  -->
<svg version="1.1" id="Layer_1" xmlns="http://www.w3.org/2000/svg" xmlns:xlink="http://www.w3.org/1999/xlink" x="0px" y="0px"
	 viewBox="0 0 366.2 409.7" style="enable-background:new 0 0 366.2 409.7;" xml:space="preserve">
<style type="text/css">
	.st0{fill:#FFFFFF;}
</style>
<path class="st0" d="M211.3,0c34.4,35.3,68.3,70.2,102.8,105.7c-47.9,12.1-95.1,24.1-143,36.2c5.1-18,10-35.4,14.9-52.8
	c-37.1-3.3-94.6,16.8-124.4,72.1c-28.6,53-20,119.7,24.4,163.7c45.7,45.3,116.6,53.2,171.9,18.2c47.4-29.9,83.2-97.8,52.3-172
	c13.4-5.9,26.9-11.8,41.4-18.2c3.5,11.4,7.4,22.1,10,33.2c23.2,99.9-42.2,200.6-142.7,220.2C123.2,424.8,29.5,366.6,6.2,271.9
	C-10.6,203.6,7,143.6,57.5,94.1c27.5-26.9,61-42.7,98.9-48.2c12.7-1.8,25.8-1.4,38.7-1.6c2.9-0.1,3.9-0.8,4.6-3.4
	c3.2-12,6.7-23.8,10-35.8C210.2,3.6,210.7,2.1,211.3,0z"/>
<g>
	<path class="st0" d="M162.9,233.6c7.1-11.9,10.7-24.1,10.7-36.5c0-13.5-4.1-24.2-12.1-31.8c-7.9-7.5-19.3-11.3-33.7-11.3
		c-9,0-16.8,1.4-23.2,4.3c-6.1,2.7-11.8,6.1-17,10.1l-3,2.3l11.7,27.9l5.1-3.9c3.9-3,7.6-5.2,11.2-6.7c3.3-1.4,7.1-2.1,11.3-2.1
		c6.2,0,10.7,1.5,13.5,4.4c2.9,3.1,4.3,7.4,4.3,13.1c0,4.4-0.9,9-2.7,13.7c-1.8,4.9-5,10.5-9.3,16.6c-4.4,6.3-10.3,13.5-17.6,21.4
		c-7.4,8-16.6,17.3-27.3,27.6l-1.5,1.5v9.3h91.2v-31.9h-34.1C150,251.9,157.5,242.5,162.9,233.6z"/>
	<path class="st0" d="M284.7,199c-2.3-8.4-5.8-16-10.3-22.6c-4.6-6.7-10.4-12.1-17.1-16.1c-6.9-4.1-14.9-6.2-23.8-6.2
		c-8.8,0-16.7,2.1-23.6,6.2c-6.7,4-12.4,9.4-17.1,16c-4.5,6.5-8,14.1-10.3,22.5c-2.3,8.3-3.4,17-3.4,25.7c0,8.6,1.1,17.2,3.3,25.4
		c2.2,8.4,5.7,15.9,10.1,22.5c4.6,6.7,10.3,12.2,16.9,16.3c6.9,4.3,14.9,6.4,23.8,6.4c8.9,0,16.9-2.1,23.8-6.2
		c6.8-4,12.5-9.5,17.2-16.2c4.5-6.6,8-14.1,10.3-22.5c2.3-8.2,3.4-16.9,3.4-25.6C288.2,216,287,207.3,284.7,199z M233.6,263.3
		c-3.4,0-6.4-0.8-9-2.4c-2.7-1.7-5.1-4.1-7-7.3c-2-3.4-3.6-7.5-4.7-12.3c-1.1-4.9-1.7-10.5-1.7-16.6c0-6.1,0.6-11.7,1.7-16.7
		c1.1-4.8,2.7-9,4.8-12.3c2-3.2,4.4-5.6,7.1-7.3c2.6-1.6,5.5-2.4,9-2.4c3.4,0,6.3,0.8,9,2.4c2.7,1.7,5.1,4.2,7.1,7.3
		c2.1,3.3,3.7,7.5,4.8,12.3c1.1,5,1.7,10.6,1.7,16.7c0,6-0.6,11.6-1.7,16.6c-1.1,4.8-2.7,8.9-4.8,12.2c-2,3.2-4.4,5.6-7.1,7.3
		C240,262.5,237,263.3,233.6,263.3z"/>
</g>
</svg>
